<?xml version="1.0" encoding="UTF-8"?>
<svg width="600px" height="601px" viewBox="0 0 600 601" version="1.1" xmlns="http://www.w3.org/2000/svg" xmlns:xlink="http://www.w3.org/1999/xlink">
    <!-- Generator: Sketch 53 (72520) - https://sketchapp.com -->
    <title>Square</title>
    <desc>Created with Sketch.</desc>
    <g id="Square" stroke="none" stroke-width="1" fill="none" fill-rule="evenodd" transform="translate(0.000000, 1.000000)">
        <g id="384819" transform="translate(44.000000, 44.000000)">
            <circle id="Oval" fill="#FF593F" cx="256.450924" cy="255.157929" r="226.148061"></circle>
            <g id="Group" stroke-width="4">
                <path d="M142.369787,369.239066 C147.914721,374.784 156.818843,374.784 162.448244,369.239066 L370.619127,161.068183 C376.164061,155.523249 376.164061,146.619127 370.619127,140.989726 C365.074193,135.444792 356.170071,135.444792 350.54067,140.989726 L142.369787,349.246376 C136.824853,354.79001 136.824853,363.695431 142.369787,369.239066 Z" id="Path" stroke="#FFFFFF" fill="#FFFFFF"></path>
                <path d="M476.551147,35.0577056 C429.92666,-11.5667817 354.067492,-11.5667817 307.444305,35.0577056 L214.951635,127.550376 C209.406701,133.09531 209.406701,141.999431 214.951635,147.628832 L246.958132,179.63533 C252.503066,185.180264 261.407188,185.180264 267.036589,179.63533 C272.581523,174.090396 272.581523,165.186274 267.036589,159.556873 L245.110254,137.547371 L327.521462,55.1361624 C363.056081,19.6015431 421.022538,19.6015431 456.557157,55.1361624 C492.091777,90.6707817 492.091777,148.637239 456.557157,184.171858 L374.145949,266.583066 L352.136447,244.573563 C346.591513,239.028629 337.687391,239.028629 332.05799,244.573563 C326.513056,250.118497 326.513056,259.022619 332.05799,264.65202 L364.064487,296.658518 C369.609421,302.203452 378.513543,302.203452 384.142944,296.658518 L476.635614,204.165848 C523.175635,157.540061 523.175635,81.7653604 476.551147,35.0577056 Z" id="Path" stroke="#333333" fill="#333333"></path>
                <path d="M265.860548,330.680528 C260.315614,325.135594 251.411492,325.135594 245.782091,330.680528 C240.237157,336.225462 240.237157,345.129584 245.782091,350.758985 L267.791594,372.768487 L185.380386,455.179695 C149.845766,490.714315 91.8793096,490.714315 56.3446904,455.179695 C20.8100711,419.645076 20.8100711,361.678619 56.3446904,326.144 L138.755898,243.732792 L160.765401,265.742294 C166.310335,271.287228 175.214457,271.287228 180.843858,265.742294 C186.388792,260.19736 186.388792,251.293239 180.843858,245.663838 L148.83736,213.65734 C143.292426,208.112406 134.388305,208.112406 128.758904,213.65734 L36.2662335,306.065543 C-10.3582538,352.69003 -10.3582538,428.549198 36.2662335,475.172386 C82.8907208,521.795574 158.749888,521.796873 205.373076,475.172386 L297.865746,382.679716 C303.41068,377.134782 303.41068,368.23066 297.865746,362.601259 L265.860548,330.680528 Z" id="Path" stroke="#333333" fill="#333333"></path>
            </g>
        </g>
    </g>
</svg>